Coordinates
version=1
nRows=10
nColumns=63
inDegrees=yes

Units are S.I. units (second, meters, Newtons, ...)
If the header above contains a line with 'inDegrees', this indicates whether rotational values are in degrees (yes) or radians (no).

endheader
time	pelvis_tilt	pelvis_list	pelvis_rotation	pelvis_tx	pelvis_ty	pelvis_tz	hip_flexion_r	hip_adduction_r	hip_rotation_r	knee_angle_r	knee_angle_r_beta	ankle_angle_r	subtalar_angle_r	mtp_angle_r	hip_flexion_l	hip_adduction_l	hip_rotation_l	knee_angle_l	knee_angle_l_beta	ankle_angle_l	subtalar_angle_l	mtp_angle_l	L5_S1_Flex_Ext	L5_S1_Lat_Bending	L5_S1_axial_rotation	L4_L5_Flex_Ext	L4_L5_Lat_Bending	L4_L5_axial_rotation	L3_L4_Flex_Ext	L3_L4_Lat_Bending	L3_L4_axial_rotation	L2_L3_Flex_Ext	L2_L3_Lat_Bending	L2_L3_axial_rotation	L1_L2_Flex_Ext	L1_L2_Lat_Bending	L1_L2_axial_rotation	L1_T12_Flex_Ext	L1_T12_Lat_Bending	L1_T12_axial_rotation	Abs_r3	Abs_r2	Abs_r1	Abs_t1	Abs_t2	neck_flexion	neck_bending	neck_rotation	arm_flex_r	arm_add_r	arm_rot_r	elbow_flex_r	pro_sup_r	wrist_flex_r	wrist_dev_r	arm_flex_l	arm_add_l	arm_rot_l	elbow_flex_l	pro_sup_l	wrist_flex_l	wrist_dev_l
      1.58333333	      2.20988341	    -25.45278904	    102.92917324	      0.20906896	      0.95343825	      0.60169324	     25.23747123	     -2.67742323	    -26.94533616	     12.76507877	      0.22279265	     30.09942302	     15.81781292	      0.00000000	     31.64190489	      4.71768419	     13.03747234	     20.01151634	      0.34926685	     26.28144756	    -11.70721418	      0.00000000	     -0.21305639	     -0.61770112	      0.08446515	     -0.39566702	     -0.82154249	      0.08974423	     -0.35003034	     -1.50187851	      0.08974423	     -0.24350215	     -1.50187851	      0.07390701	     -0.19784416	     -1.25961613	      0.06862794	     -0.12174042	     -0.95681904	      0.06334887	     -1.52184049	     -6.98755864	      0.46976984	      0.00000000	      0.00000000	     24.52250378	      2.80420069	      0.74980321	     12.01444031	     -9.29919306	     50.97356586	     25.60064336	     77.30125670	     -9.63357470	     -6.28478155	     21.47639680	     -0.79378987	    170.92611155	      1.26519897	      5.07272327	     -6.20764313	    -13.44697183
      1.60416667	      1.87952047	    -26.16114332	    102.02200448	      0.21044929	      0.95059833	      0.60686218	     26.66228724	     -2.99119162	    -26.21317747	     13.47730584	      0.23522336	     30.75166014	     16.03387267	      0.00000000	     33.04237487	      4.82194059	     12.08411846	     20.91531839	      0.36504117	     26.73563412	    -11.80607603	      0.00000000	     -0.25246169	     -0.65739985	      0.27789734	     -0.46884661	     -0.87434181	      0.29526593	     -0.41476931	     -1.59840201	      0.29526593	     -0.28853847	     -1.59840201	      0.24316018	     -0.23443593	     -1.34056978	      0.22579159	     -0.14425661	     -1.01831237	      0.20842301	     -1.80330861	     -7.43663863	      1.54558166	      0.00000000	      0.00000000	     23.65949922	      3.94753092	      1.47261887	     12.63320992	     -9.10898798	     56.15653075	     25.09938281	     72.05025236	    -14.08047669	     -8.42774732	     22.24356213	     -0.22899495	    172.69053159	      1.08328542	      3.92990223	     -3.14282123	    -13.56417346
      1.62500000	      1.71497850	    -27.08451940	    101.36045272	      0.21140713	      0.94770968	      0.61251927	     28.44651086	     -3.32315614	    -25.78753020	     14.41553735	      0.25159859	     31.43215470	     16.28694524	      0.00000000	     34.77696381	      4.95587230	     11.58008441	     21.92636207	      0.38268721	     26.93427085	    -12.33435361	      0.00000000	     -0.26681254	     -0.68831612	      0.44644355	     -0.49549757	     -0.91546044	      0.47434627	     -0.43834633	     -1.67357181	      0.47434627	     -0.30494006	     -1.67357181	      0.39063810	     -0.24776213	     -1.40361423	      0.36273538	     -0.15245669	     -1.06620167	      0.33483266	     -1.90581532	     -7.78636961	      2.48298507	      0.00000000	      0.00000000	     23.37442097	      5.01136732	      1.48425451	     12.53932842	     -8.95457693	     56.29016128	     25.47050860	     73.45247565	    -18.52064758	     -9.96935437	     23.00970011	      0.41124791	    172.56830126	      0.97178069	      3.87186890	     -0.49533135	    -14.51676671
      1.64583333	      1.16941274	    -28.00585452	    100.31686222	      0.21269714	      0.94559026	      0.61742406	     30.22217794	     -3.84024071	    -25.05673680	     15.45796019	      0.26979230	     31.99395399	     16.53308550	      0.00000000	     36.22909829	      5.19899071	     10.79643604	     22.54183891	      0.39342931	     26.88294744	    -12.94520379	      0.00000000	     -0.28060966	     -0.76310619	      0.61498523	     -0.52112020	     -1.01493124	      0.65342181	     -0.46101361	     -1.85541640	      0.65342181	     -0.32070878	     -1.85541640	      0.53811208	     -0.26057413	     -1.55612615	      0.49967550	     -0.16034036	     -1.18205150	      0.46123893	     -2.00436672	     -8.63240990	      3.42036338	      0.00000000	      0.00000000	     23.55687476	      5.50362585	      0.60913041	     12.68720342	     -8.68968236	     56.59773330	     25.89331994	     76.95939390	    -24.82536031	    -11.28279813	     23.69720398	      0.83172485	    171.87724013	      0.85146562	      3.28149411	      1.84855789	    -16.01472921
      1.66666667	      0.38318283	    -28.73146238	     99.00321145	      0.21351205	      0.94460848	      0.62119045	     31.62952284	     -4.29669097	    -23.69270821	     16.15056939	      0.28188061	     32.14208073	     16.24848746	      0.00000000	     37.17122772	      5.48637832	      9.91071231	     22.68281584	      0.39588982	     26.48497368	    -13.72322274	      0.00000000	     -0.30651493	     -0.84889519	      0.75360100	     -0.56922888	     -1.12903061	      0.80070107	     -0.50357338	     -2.06400377	      0.80070107	     -0.35031591	     -2.06400377	      0.65940088	     -0.28462976	     -1.73106708	      0.61230082	     -0.17514263	     -1.31493866	      0.56520075	     -2.18940549	     -9.60287221	      4.19130271	      0.00000000	      0.00000000	     24.16129032	      5.58314084	     -0.48764534	     12.67366636	     -8.66001056	     54.15201436	     27.30676179	     86.30280502	    -30.48491796	     -9.04996686	     24.20050855	      1.18360904	    170.61510324	      0.79443193	      2.94461092	      2.81590728	    -17.53679825
      1.68750000	     -0.05359966	    -29.45548093	     98.12721978	      0.21378230	      0.94397096	      0.62372001	     32.93064226	     -4.60032756	    -23.09460553	     16.80233639	      0.29325609	     32.21500593	     16.37386672	      0.00000000	     38.08692793	      5.61193991	      9.19623117	     22.82664469	      0.39840011	     26.11075471	    -14.22866489	      0.00000000	     -0.28637101	     -0.89489108	      0.79206915	     -0.53181961	     -1.19020514	      0.84157347	     -0.47047893	     -2.17583817	      0.84157347	     -0.32729343	     -2.17583817	      0.69306050	     -0.26592412	     -1.82486189	      0.64355618	     -0.16363240	     -1.38618628	      0.59405186	     -2.04551950	    -10.12318689	      4.40525098	      0.00000000	      0.00000000	     25.07909502	      5.25884044	     -1.50671270	     12.98712599	     -8.66739656	     53.98631148	     27.78794696	     87.79224517	    -33.70790063	    -10.64936349	     24.27559356	      1.41093247	    168.89863677	      0.75035306	      2.32532673	      2.96900541	    -19.47374067
      1.70833333	     -0.58800306	    -30.02746274	     97.00393923	      0.21402566	      0.94393709	      0.62530429	     33.97419008	     -4.76453068	    -22.08775825	     17.23168707	      0.30074968	     32.05848970	     16.35307318	      0.00000000	     38.60194476	      5.65476743	      8.36031698	     22.63392394	      0.39503650	     25.62704489	    -14.68560697	      0.00000000	     -0.26334995	     -0.93783130	      0.81207368	     -0.48906719	     -1.24731564	      0.86282829	     -0.43265764	     -2.28024303	      0.86282829	     -0.30098266	     -2.28024303	      0.71056447	     -0.24454676	     -1.91242560	      0.65980987	     -0.15047816	     -1.45270069	      0.60905526	     -1.88108237	    -10.60893529	      4.51651019	      0.00000000	      0.00000000	     26.15463071	      4.69465259	     -2.36216650	     13.77481925	     -8.62837391	     55.69632065	     27.76626129	     88.14446743	    -35.06375235	    -11.13399926	     24.09596096	      1.52766059	    166.39742933	      0.75436596	      2.16953151	      2.55406666	    -21.07000760
      1.72916667	     -0.73138347	    -30.56029031	     96.36469803	      0.21364023	      0.94368093	      0.62666502	     34.90522839	     -4.77194177	    -21.62457205	     17.59896858	      0.30715995	     31.92333981	     16.45539669	      0.00000000	     39.19028667	      5.57662289	      7.80533849	     22.68000212	      0.39584071	     25.25162810	    -14.92924443	      0.00000000	     -0.22451193	     -0.92640183	      0.79042016	     -0.41694110	     -1.23211443	      0.83982142	     -0.36885064	     -2.25245341	      0.83982142	     -0.25659468	     -2.25245341	      0.69161764	     -0.20848177	     -1.88911861	      0.64221638	     -0.12828611	     -1.43499643	      0.59281512	     -1.60366623	    -10.47964277	      4.39607979	      0.00000000	      0.00000000	     26.92331428	      3.81605107	     -2.76767724	     14.38763287	     -8.65131510	     57.28810681	     27.52141571	     88.25686848	    -33.69619139	    -10.60261850	     23.85002380	      1.81455214	    165.09895012	      0.72970807	      1.81832855	      1.83996947	    -22.23753795
      1.75000000	     -0.75891740	    -31.10498972	     95.76960495	      0.21308344	      0.94305044	      0.62806308	     35.83119255	     -4.67098385	    -21.19441637	     17.89983723	      0.31241110	     31.82474830	     16.63829917	      0.00000000	     39.80477565	      5.41913835	      7.34426749	     22.77583045	      0.39751323	     24.88506634	    -15.18956568	      0.00000000	     -0.17846260	     -0.89321056	      0.81106485	     -0.33142290	     -1.18797004	      0.86175641	     -0.29319621	     -2.17175215	      0.86175641	     -0.20396491	     -2.17175215	      0.70968175	     -0.16572037	     -1.82143497	      0.65899019	     -0.10197353	     -1.38358315	      0.60829864	     -1.27474054	    -10.10417646	      4.51089940	      0.00000000	      0.00000000	     27.38543351	      2.76250678	     -2.92578077	     14.86439511	     -8.61662227	     59.11128682	     26.87309296	     88.24892714	    -31.09580861	     -9.21870638	     23.64650096	      2.25828222	    163.97393185	      0.71352770	      1.61303141	      1.22348323	    -22.85728347
      1.77083333	     -0.64522183	    -31.45233743	     95.30195731	      0.21247262	      0.94250585	      0.62948225	     36.49896152	     -4.43652662	    -20.75644049	     18.09100222	      0.31574755	     31.68351794	     16.72615532	      0.00000000	     40.19940420	      5.17970659	      7.10855290	     22.84268607	      0.39868008	     24.55036546	    -15.48472451	      0.00000000	     -0.16541182	     -0.84209593	      0.82694248	     -0.30718628	     -1.11998758	      0.87862639	     -0.27175507	     -2.04747204	      0.87862639	     -0.18904916	     -2.04747204	      0.72357467	     -0.15360141	     -1.71720202	      0.67189077	     -0.09451631	     -1.30440659	      0.62020686	     -1.18152006	     -9.52595756	      4.59920599	      0.00000000	      0.00000000	     27.68061343	      1.97900154	     -2.81202704	     15.33011178	     -8.46503875	     60.89118666	     26.04707704	     87.98073815	    -27.86405980	     -6.88405945	     23.51826951	      2.70914972	    162.23867495	      0.75323919	      1.63021350	      0.52309823	    -23.11119489
